<svg xmlns="http://www.w3.org/2000/svg" viewBox="0 0 124.58 112.36"><defs><style>.cls-1{fill:#ecf2d6;}.cls-2{fill:#737373;}.cls-3{fill:#555454;}</style></defs><g id="Layer_4" data-name="Layer 4"><g id="change1_1" data-name="change1 1"><path class="cls-1" d="M36.87,80.33c-1.53-.45-3.06-.87-4.58-1.39-7.25-2.41-14.5-4.8-21.73-7.26C8.47,71,6.42,70.14,4.39,69.29a8.87,8.87,0,0,1-3.16-2.2,6.93,6.93,0,0,1-.73-.91,2.56,2.56,0,0,1,1.05-3.9,15,15,0,0,1,2.68-.88c5.7-1.38,11.52-2.2,17.32-3,3.35-.48,6.71-1,10.06-1.58-.23,0-.47,0-.7-.08-1.24-.21-2.49-.39-3.71-.7a4.5,4.5,0,0,1-2.58-1.74,3.27,3.27,0,0,1,.49-4.6,10.49,10.49,0,0,1,1.79-1.15,56.73,56.73,0,0,1,7.66-3c7.08-2.39,14.2-4.68,21.46-6.41,6.27-1.51,12.62-2.58,19-3.48a.77.77,0,0,0,.39-.14c-.68-.09-1.36-.14-2-.24-3.1-.41-6.19-.88-9.3-1.25-2.38-.28-4.79-.35-7.17-.67a68.73,68.73,0,0,0-10.14-.56,12,12,0,0,0-3.37.44c-5.09,1.51-10.21,3-15.29,4.52-2.27.7-4.45,1.65-6.72,2.36a26.49,26.49,0,0,1-7.08,1.23,4.45,4.45,0,0,1-3.67-1.73A2.22,2.22,0,0,1,11,36.25a10.3,10.3,0,0,1,4.25-1.94c2.73-.57,5.5-1.08,8.26-1.52a142.88,142.88,0,0,1,21.07-1.5,10.27,10.27,0,0,0,2.59-.52c3.27-.86,6.56-1.64,9.76-2.66,7-2.2,13.92-4.44,20.84-6.77,6-2,12.06-3.69,18.06-5.6,3.23-1,6.44-2.2,9.61-3.42a34.65,34.65,0,0,0,7.31-4.06,28.84,28.84,0,0,0,2.45-2.12c.09-.07.16-.19.26-.22a.75.75,0,0,1,.49,0,.51.51,0,0,1,.12.47,4.57,4.57,0,0,1-.56.82,17.63,17.63,0,0,1-4.56,3.72A44.77,44.77,0,0,1,100.6,15.5c-6.71,2.15-13.46,4.21-20.17,6.35-3.59,1.15-7.15,2.44-10.74,3.61q-7.64,2.46-15.33,4.83c-1.12.36-2.27.6-3.43.9,0,0,0,.07,0,.07l6.84.65c2.72.25,5.46.42,8.17.77,5.15.65,10.3,1.4,15.45,2.11a3.1,3.1,0,0,0,.86,0c4.22-.52,8.4-1.1,12.61-1.56A91.14,91.14,0,0,1,109,32.66a15,15,0,0,1,2.42.36,3.45,3.45,0,0,1,2,1.16,1.88,1.88,0,0,1-.42,3,8.7,8.7,0,0,1-4,1.16,80.08,80.08,0,0,1-9.92,0,136.33,136.33,0,0,1-16.85-1.87,10.69,10.69,0,0,0-2.76.1A171.92,171.92,0,0,0,54.39,41a221,221,0,0,0-24.13,7.66c-1,.39-2,.89-3,1.37a5.55,5.55,0,0,0-1.05.68A1.82,1.82,0,0,0,26,53.51a3,3,0,0,0,1.8,1.07,30.35,30.35,0,0,0,4.12.62c4,.17,8,.28,12,.28,1.91,0,3.81-.32,5.73-.49,5.59-.5,11.19-1,16.78-1.49,4.75-.46,9.5-1,14.25-1.53,5.31-.6,10.63-1,16-1.2,1.49,0,3,.08,4.46.16a3.48,3.48,0,0,1,1.19.36,1.1,1.1,0,0,1,.69,1.09,1.17,1.17,0,0,1-.81,1.1,43.09,43.09,0,0,1-12.45,3.1c-5.09.36-10.17.71-15.26,1-7.59.44-15.17.11-22.75-.19-2.12-.08-4.23-.25-6.33-.25-1.67,0-3.35.23-5,.33-5.13.32-10.19,1.23-15.29,2-4.15.63-8.34,1.13-12.49,1.83-3.05.49-6.07,1.2-9.11,1.84a4.36,4.36,0,0,0-1.13.41,1.14,1.14,0,0,0-.5,1.9,5.44,5.44,0,0,0,2,1.8A28,28,0,0,0,7.62,69Q16.4,72,25.2,75c4.65,1.53,9.34,3,14,4.41a1,1,0,0,0,.52.05,81.8,81.8,0,0,1,12.24-2q8.23-.89,16.51-1.06a159,159,0,0,1,17.73.72c4,.37,7.92.67,11.87,1.07q6.51.67,13,1.5a21.17,21.17,0,0,1,8.06,2.68,11.67,11.67,0,0,1,1.69,1.22,2.64,2.64,0,0,1,.46,3.8,6.13,6.13,0,0,1-1.56,1.53,33.31,33.31,0,0,1-7.6,4,26.63,26.63,0,0,1-10,1.84A101.25,101.25,0,0,1,77.4,91.4c-11.72-3-23.42-6.14-35.05-9.51-.76-.21-1.49-.45-2.25-.66a1.07,1.07,0,0,0-.56,0A33.8,33.8,0,0,0,32.69,84C28.25,86.46,27.47,91.07,28,94.6a5.3,5.3,0,0,0,.7,1.73,21.5,21.5,0,0,0,3.93,4.84c.61.6,1.2,1.19,1.77,1.82a2.62,2.62,0,0,1,.67,1.67.63.63,0,0,1-.09.24c-.08,0-.2-.05-.22-.13a5.79,5.79,0,0,0-1.68-1.4,19.43,19.43,0,0,1-6.13-7,6.17,6.17,0,0,1-.66-2.69,13.23,13.23,0,0,1,1.37-6.91,10.43,10.43,0,0,1,3.76-3.93,28.64,28.64,0,0,1,5-2.38l.42-.16Zm5.92.15v.08l.58.19q17.19,4.91,34.49,9.34a99.51,99.51,0,0,0,24.51,3.29,25.25,25.25,0,0,0,9.14-1.63,32.16,32.16,0,0,0,7.52-3.9,4.68,4.68,0,0,0,1.13-1.09,1.35,1.35,0,0,0-.24-2.06,10,10,0,0,0-1.7-1.17,21.64,21.64,0,0,0-8-2.44c-2.77-.33-5.54-.56-8.29-.9-7.87-1-15.76-1.59-23.67-2A168.23,168.23,0,0,0,46,79.94c-1.08.14-2.12.35-3.17.54ZM39.23,33v-.07H38.4a127.88,127.88,0,0,0-15.13,1.36q-3.81.57-7.59,1.32a9.17,9.17,0,0,0-3.76,1.63,1,1,0,0,0-.14,1.63A3.21,3.21,0,0,0,14.35,40a25.42,25.42,0,0,0,7.81-1.57c4-1.41,8-2.88,12-4,1.68-.44,3.34-1,5-1.45ZM101,52.46s0-.05,0-.08a6.06,6.06,0,0,0-.73-.09c-1.14,0-2.29-.14-3.42-.07-4.44.29-8.88.54-13.31,1-4.88.45-9.74,1.12-14.62,1.63-4.27.44-8.55.76-12.82,1.15a2.7,2.7,0,0,0-.41.05.8.8,0,0,0,.41.1A251.62,251.62,0,0,0,88,55.4a44.25,44.25,0,0,0,12.56-2.74ZM87.4,35.72v.06a2.32,2.32,0,0,0,.38.07A105.3,105.3,0,0,0,99.93,37c3,.07,6,0,9,0a6.87,6.87,0,0,0,3.2-.8c.57-.32.64-.74.12-1.11a3.73,3.73,0,0,0-1.56-.71A36.34,36.34,0,0,0,106,34a103.17,103.17,0,0,0-15.1,1.21C89.76,35.41,88.57,35.55,87.4,35.72ZM122.09,1.29a10.23,10.23,0,0,1,.6-.91,1.2,1.2,0,0,1,1.83.1.64.64,0,0,1,0,.51,4.92,4.92,0,0,1-.5.81.87.87,0,0,1-1.53-.12C122.43,1.51,122.25,1.41,122.09,1.29ZM40,111.17c0-.93.45-1.22,1.15-.92s1,.72.64,1.46a1.21,1.21,0,0,1-1.24.64.24.24,0,0,1-.13-.09C40.22,111.84,40.05,111.41,40,111.17Z"/></g><path class="cls-2" d="M44.09,61.26H21.3L15.37,74.75H13.54l20-45.6h2.54L56,74.75H50ZM43.51,60,32.7,35.14,21.82,60Z"/><path class="cls-3" d="M109.79,43.35c0,8.14-7.1,14.2-16.55,14.2H79.82V74.74H74V29.15H93.24C102.69,29.15,109.79,35.2,109.79,43.35Zm-6.06,0c0-7.75-4.62-12.9-11.72-12.9H79.82V56.24H92C99.11,56.24,103.73,51.1,103.73,43.35Z"/></g></svg>